<svg width="32" height="32" viewBox="0 0 32 32" fill="none" xmlns="http://www.w3.org/2000/svg">
<circle cx="16" cy="16" r="16" fill="#F1FAEE"/>
<path d="M16 1C24.271 1 31 7.729 31 16C31 24.271 24.271 31 16 31C7.729 31 1 24.271 1 16C1 7.729 7.729 1 16 1ZM16 0C7.163 0 0 7.163 0 16C0 24.836 7.163 32 16 32C24.837 32 32 24.836 32 16C32 7.163 24.837 0 16 0Z" fill="#1D3557"/>
<path d="M22.644 10.5339C22.628 10.5569 21.248 12.5509 17.851 13.9379C18.123 14.4937 18.3758 15.0587 18.609 15.6319C21.565 15.2599 24.477 15.8849 24.601 15.9109C24.5843 13.9472 23.8934 12.0489 22.644 10.5339ZM19.133 16.9899C20.261 20.0909 20.72 22.6169 20.808 23.1359C21.7848 22.4774 22.616 21.6255 23.2502 20.6329C23.8844 19.6402 24.3081 18.5279 24.495 17.3649C24.317 17.3069 21.91 16.5449 19.133 16.9899ZM19.359 23.9219C19.232 23.1699 18.732 20.5349 17.522 17.3889L17.464 17.4079C12.388 19.1769 10.73 22.7429 10.712 22.7829C11.9202 23.7277 13.3595 24.3316 14.8801 24.5319C16.4008 24.7322 17.9473 24.5216 19.359 23.9219ZM17.189 12.6559C20.435 11.4389 21.661 9.57388 21.682 9.54188C20.1135 8.15691 18.0924 7.39391 16 7.39688C15.301 7.39688 14.622 7.48188 13.973 7.63788C14.101 7.81088 15.717 9.95488 17.189 12.6559ZM16.934 15.9629C16.7148 15.4692 16.482 14.9817 16.236 14.5009C11.806 15.8269 7.55499 15.7319 7.40299 15.7259C7.40099 15.8179 7.39599 15.9069 7.39599 15.9999C7.39599 18.2099 8.22999 20.2259 9.59999 21.7479C9.59699 21.7439 11.952 17.5669 16.595 16.0649C16.707 16.0289 16.821 15.9949 16.934 15.9629ZM25.869 13.9719C26.1429 15.31 26.1429 16.6897 25.869 18.0279C25.736 18.6769 25.539 19.3129 25.282 19.9219C24.5181 21.72 23.251 23.259 21.633 24.3539C21.094 24.7169 20.518 25.0279 19.921 25.2819C18.6797 25.8053 17.3461 26.0749 15.999 26.0749C14.652 26.0735 13.3187 25.804 12.077 25.2819C11.4783 25.0273 10.9051 24.7166 10.365 24.3539C8.7476 23.2586 7.48087 21.7197 6.71699 19.9219C6.45893 19.3114 6.26165 18.677 6.12799 18.0279C5.85861 16.6889 5.85895 15.3097 6.12899 13.9709C6.52443 12.0393 7.47983 10.267 8.87599 8.87488C9.79475 7.9567 10.8815 7.22373 12.077 6.71588C12.6868 6.45757 13.321 6.26093 13.97 6.12888C15.968 5.7218 18.0423 5.92672 19.922 6.71688C20.519 6.96988 21.095 7.28288 21.634 7.64788C22.167 8.00888 22.669 8.42188 23.125 8.87588C24.0429 9.79538 24.7756 10.8828 25.283 12.0789C25.54 12.6859 25.737 13.3229 25.869 13.9719ZM15.524 13.1759C14.5543 11.4637 13.4876 9.80833 12.329 8.21788C11.1276 8.78544 10.0738 9.62318 9.25 10.6656C8.42616 11.708 7.85459 12.9269 7.57999 14.2269C7.80699 14.2279 11.393 14.2729 15.524 13.1759Z" fill="#1D3557"/>
</svg>
