<svg width="32" height="32" viewBox="0 0 32 32" fill="none" xmlns="http://www.w3.org/2000/svg">
<circle cx="16" cy="16" r="16" fill="#F1FAEE"/>
<path d="M16 1C24.271 1 31 7.729 31 16C31 24.271 24.271 31 16 31C7.729 31 1 24.271 1 16C1 7.729 7.729 1 16 1ZM16 0C7.163 0 0 7.163 0 16C0 24.836 7.163 32 16 32C24.837 32 32 24.836 32 16C32 7.163 24.837 0 16 0Z" fill="#1D3557"/>
<path d="M13.69 24.9029H17.369V15.9989H19.823L20.148 12.9309H17.369L17.373 11.3949C17.373 10.5949 17.449 10.1659 18.597 10.1659H20.131V7.09692H17.676C14.727 7.09692 13.69 8.58592 13.69 11.0889V12.9309H11.852V15.9999H13.69V24.9029Z" fill="#1D3557"/>
</svg>
