<svg width="32" height="32" viewBox="0 0 32 32" fill="none" xmlns="http://www.w3.org/2000/svg">
<circle cx="16" cy="16" r="16" fill="#F1FAEE"/>
<path d="M16 1C24.271 1 31 7.729 31 16C31 24.271 24.271 31 16 31C7.729 31 1 24.271 1 16C1 7.729 7.729 1 16 1ZM16 0C7.163 0 0 7.163 0 16C0 24.836 7.163 32 16 32C24.837 32 32 24.836 32 16C32 7.163 24.837 0 16 0Z" fill="#1D3557"/>
<path d="M24.294 22.9421V16.8051C24.294 13.5171 22.539 11.9871 20.198 11.9871C18.309 11.9871 17.463 13.0261 16.992 13.7551V12.2381H13.434C13.481 13.2431 13.434 22.9421 13.434 22.9421H16.992V16.9641C16.992 16.6451 17.015 16.3251 17.109 16.0971C17.366 15.4581 17.951 14.7961 18.934 14.7961C20.222 14.7961 20.737 15.7771 20.737 17.2161V22.9431L24.294 22.9421ZM9.68498 10.7771C10.925 10.7771 11.698 9.95412 11.698 8.92712C11.675 7.87713 10.925 7.07812 9.70798 7.07812C8.49098 7.07812 7.69598 7.87713 7.69598 8.92712C7.69598 9.95512 8.46798 10.7771 9.66298 10.7771H9.68498ZM11.464 22.9421V12.2381H7.90698V22.9421H11.464Z" fill="#1D3557"/>
</svg>
