<svg width="239" height="44" viewBox="0 0 239 44" fill="none" xmlns="http://www.w3.org/2000/svg">
<path d="M0.220703 6.93872C1.94336 6.93872 3.61816 6.93872 5.43652 6.93872C5.43652 14.0686 5.43652 21.0549 5.43652 28.0413C5.53223 28.0413 5.62793 28.0891 5.72363 28.0891C6.10644 26.6057 6.53711 25.1223 6.91992 23.6389C8.06836 19.1887 9.16894 14.7864 10.3174 10.3362C10.9873 7.7522 12.6621 6.60376 14.8633 7.13013C16.4902 7.51294 17.2559 8.70923 17.6865 10.1926C18.5479 13.4465 19.457 16.7483 20.3184 20.0022C21.0361 22.6819 21.7539 25.3137 22.5195 27.9934C22.6152 27.9934 22.7109 27.9934 22.8066 27.9456C22.8066 20.9592 22.8066 14.0208 22.8066 6.98657C24.625 6.98657 26.2998 6.98657 28.0703 6.98657C28.1182 7.36938 28.166 7.70435 28.166 8.03931C28.166 15.9348 28.166 23.8303 28.166 31.7258C28.166 33.2092 27.8311 34.5491 26.8262 35.6975C24.3379 38.4729 19.792 37.5159 18.6436 33.8792C17.5908 30.4338 16.7295 26.8928 15.7246 23.3997C15.4854 22.4905 15.4375 21.2463 14.0977 21.2463C12.6621 21.2463 12.6621 22.4905 12.375 23.4475C11.5615 26.6536 10.748 29.8596 9.88672 33.0657C9.2168 35.6497 7.58984 37.0852 5.29297 37.2288C2.99609 37.3723 1.32129 36.0803 0.316406 33.5442C0.268554 33.4963 0.220703 33.4485 0.125 33.4006C0.220703 24.6438 0.220703 15.7913 0.220703 6.93872Z" fill="#31587A"/>
<path d="M232.301 34.2139C232.109 34.5488 231.918 34.9316 231.727 35.2666C230.722 36.7021 229.382 37.5635 227.563 37.3242C225.745 37.085 224.357 36.1279 223.688 34.3574C222.3 30.8643 220.96 27.3711 219.62 23.9258C219.477 23.5908 219.381 23.2559 219.237 22.9209C218.902 22.2031 218.424 21.7246 217.563 21.916C216.749 22.1074 216.462 22.6816 216.462 23.543C216.462 26.8447 216.462 30.1465 216.462 33.4482C216.462 34.6924 216.462 35.9844 216.462 37.3242C214.644 37.3242 212.969 37.3242 211.198 37.3242C211.198 36.9414 211.15 36.6064 211.15 36.2236C211.15 28.2324 211.15 20.1934 211.15 12.2021C211.15 10.4316 211.629 8.85254 213.112 7.7998C215.601 6.0293 218.807 7.12988 220.003 10.1445C221.343 13.4941 222.635 16.8916 223.927 20.2412C224.166 20.8154 224.31 21.4854 224.645 22.0117C224.979 22.4902 225.602 23.0645 226.08 23.1123C226.941 23.1602 227.133 22.2988 227.133 21.5332C227.133 17.1787 227.133 12.8721 227.133 8.51758C227.133 8.03906 227.133 7.56055 227.133 6.93848C228.951 6.93848 230.626 6.93848 232.253 6.93848C232.301 16.0303 232.301 25.1221 232.301 34.2139Z" fill="#31587A"/>
<path d="M182.583 15.791C180.765 15.791 179.09 15.791 177.75 15.791C176.936 14.6904 176.458 13.542 175.549 12.9199C174.735 12.3936 173.539 12.3457 172.486 12.2979C170.955 12.2021 169.472 12.2979 167.94 12.25C166.936 12.25 166.505 12.7285 166.505 13.6855C166.505 19.332 166.505 25.0264 166.505 30.6728C166.505 31.7256 166.983 32.1084 167.988 32.0605C169.663 32.0605 171.338 32.0605 173.013 32.0605C175.597 32.0605 176.745 31.1035 177.367 28.5195C179.042 28.5195 180.765 28.5195 182.535 28.5195C182.774 31.4385 182.822 34.2617 180.095 36.0322C178.994 36.75 177.559 37.1807 176.219 37.2764C173.395 37.4678 170.572 37.3721 167.749 37.3242C163.873 37.2764 161.337 34.6924 161.289 30.8164C161.241 25.0264 161.289 19.2842 161.289 13.4941C161.289 9.66602 163.729 7.08203 167.605 6.98633C170.524 6.89063 173.443 6.89063 176.314 6.98633C180.143 7.08203 182.535 9.61816 182.631 13.4941C182.583 14.2119 182.583 14.9297 182.583 15.791Z" fill="#31587A"/>
<path d="M123.678 7.03418C125.448 7.03418 127.171 7.03418 128.989 7.03418C129.468 9.57031 129.898 12.1064 130.377 14.6426C131.334 19.9062 132.243 25.2178 133.248 30.4814C133.344 31.0557 134.014 31.6777 134.588 31.917C134.971 32.0605 135.688 31.6299 136.071 31.2949C136.358 31.0078 136.406 30.4336 136.502 29.9551C137.65 23.543 138.799 17.1309 139.947 10.6709C140.139 9.71387 140.234 8.70898 140.474 7.75195C140.569 7.46484 141 7.03418 141.239 6.98633C142.723 6.89063 144.254 6.93848 145.929 6.93848C145.546 9.0918 145.211 11.1016 144.876 13.1113C143.775 19.2842 142.675 25.5049 141.574 31.6777C140.952 35.2666 138.56 37.3242 134.827 37.3242C131.047 37.3242 128.606 35.3623 127.984 31.7256C127.649 29.9551 127.362 28.1846 127.027 26.4619C125.927 20.2891 124.826 14.1641 123.726 7.99121C123.726 7.7041 123.726 7.41699 123.678 7.03418Z" fill="#31587A"/>
<path d="M49.9385 7.08203C49.9385 8.80469 49.9385 10.4316 49.9385 12.25C49.0293 12.25 48.1201 12.25 47.2109 12.25C44.4834 12.25 41.708 12.25 38.9805 12.25C37.9756 12.25 37.4971 12.6328 37.5449 13.6377C37.5928 15.5518 37.5449 17.4658 37.5449 19.5234C39.6982 19.5234 41.708 19.5234 43.7178 19.5234C43.7178 21.3896 43.7178 23.0645 43.7178 24.7393C39.2676 25.6963 37.3535 27.9453 37.5928 32.0127C41.6602 32.0127 45.7275 32.0127 49.9385 32.0127C49.9385 33.8311 49.9385 35.5059 49.9385 37.2285C49.8906 37.2285 49.8428 37.3242 49.7949 37.3242C45.7275 37.3242 41.6602 37.4199 37.5928 37.2764C35.0088 37.1807 32.6641 34.7881 32.3291 32.2041C32.2334 31.6299 32.1855 31.0078 32.1855 30.4336C32.1855 24.9307 32.1855 19.4277 32.1855 13.9248C32.1855 9.47461 34.7217 6.98633 39.1719 6.98633C42.6172 6.98633 46.1104 6.98633 49.5557 6.98633C49.6035 6.98633 49.6992 7.03418 49.9385 7.08203Z" fill="#31587A"/>
<path d="M121.285 32.0128C121.285 33.879 121.285 35.5538 121.285 37.2764C120.902 37.3243 120.567 37.3721 120.232 37.3721C116.835 37.3721 113.438 37.42 110.088 37.3721C106.116 37.3243 103.58 34.7882 103.58 30.8643C103.532 25.0743 103.532 19.2843 103.58 13.5421C103.58 9.71395 105.973 7.17781 109.753 7.08211C113.437 6.98641 117.17 7.03426 120.854 7.08211C120.95 7.08211 121.094 7.12996 121.237 7.17781C121.237 8.85262 121.237 10.4796 121.237 12.2979C120.711 12.2979 120.232 12.2979 119.706 12.2979C116.548 12.2979 113.39 12.2979 110.279 12.2979C109.274 12.2979 108.796 12.6807 108.844 13.6856C108.892 15.5997 108.844 17.5138 108.844 19.5235C110.949 19.5235 113.007 19.5235 115.017 19.5235C115.017 21.3897 115.017 23.0645 115.017 24.7393C110.614 25.6485 108.7 27.8975 108.892 32.0128C112.959 32.0128 117.026 32.0128 121.285 32.0128Z" fill="#31587A"/>
<path d="M74.1514 25.2655C74.1035 24.2128 73.29 23.1601 73.29 22.1073C73.29 21.0546 74.0557 20.0019 74.1514 18.9491C74.2949 17.2743 74.1514 15.5995 74.2471 13.9247C74.4863 9.57021 71.376 6.89052 67.3086 6.93837C62.9062 7.03408 58.5518 6.93837 54.1494 6.93837C53.7666 6.93837 53.3838 6.98623 52.9531 6.98623C52.9531 17.1308 52.9531 27.1317 52.9531 37.2763C58.2646 37.2763 63.4326 37.3241 68.6484 37.2284C71.5195 37.1806 74.0557 34.6444 74.1992 31.7733C74.2471 29.6679 74.2949 27.4667 74.1514 25.2655ZM67.5957 32.0604C66.2559 32.0604 64.8682 32.0604 63.5283 32.0604C62.2363 32.0604 60.8965 32.0604 59.6045 32.0604C58.5996 32.0604 58.1211 31.6298 58.1689 30.6249C58.2168 29.8114 58.1689 29.0458 58.3125 28.2323C58.6475 26.3183 60.2744 24.8827 62.2363 24.8349C64.0068 24.787 65.8252 24.8349 67.5957 24.787C68.5049 24.787 68.8877 25.1698 68.8877 26.079C68.8877 27.6102 68.8398 29.1893 68.8877 30.7206C68.9355 31.7255 68.457 32.0604 67.5957 32.0604ZM68.8877 18.4227C68.8877 19.1884 68.5049 19.5233 67.7871 19.5233C64.9639 19.5233 62.1406 19.5233 59.3174 19.5233C58.5518 19.5233 58.1689 19.0927 58.1689 18.327C58.1689 16.3651 58.1689 14.4511 58.1689 12.2977C61.5186 12.2977 64.7246 12.2499 67.9307 12.3456C68.2656 12.3456 68.8398 13.0634 68.8398 13.4462C68.9355 15.0731 68.8877 16.7479 68.8877 18.4227Z" fill="#31587A"/>
<path d="M207.083 13.542C207.035 9.47461 204.499 7.03418 200.432 6.98633C197.752 6.93848 195.072 6.93848 192.44 6.98633C188.277 7.03418 185.741 9.57031 185.741 13.7334C185.741 16.5088 185.741 19.332 185.741 22.1074C185.741 24.9307 185.741 27.7539 185.741 30.5771C185.741 30.625 185.741 30.6728 185.741 30.6728C185.789 34.7881 188.325 37.3242 192.393 37.3242C195.072 37.3242 197.752 37.3242 200.384 37.3242C204.499 37.3242 207.035 34.8359 207.083 30.7207C207.131 25.0264 207.131 19.2842 207.083 13.542ZM200.192 32.0605C195.694 31.917 191.436 27.9453 191.148 23.3994C190.957 20.0977 191.053 16.7959 191.053 13.4941C191.053 12.585 191.531 12.25 192.393 12.25C196.986 12.3457 201.389 16.4609 201.676 21.1025C201.771 22.7295 201.676 24.3564 201.676 25.9834H201.724C201.724 27.5146 201.676 29.0938 201.724 30.625C201.771 31.7734 201.245 32.1084 200.192 32.0605Z" fill="#31587A"/>
<path d="M99.6083 13.877C99.6083 9.47461 97.1201 6.98633 92.7177 6.98633C88.3154 6.98633 83.8652 6.98633 79.4628 6.98633C79.08 6.98633 78.6972 7.03418 78.2665 7.03418C78.2665 17.1787 78.2665 27.1797 78.2665 37.3721C78.7451 37.3721 79.1279 37.3721 79.5585 37.3721C83.9609 37.3721 88.3154 37.2764 92.7177 37.4199C96.4023 37.5635 99.7519 34.9795 99.6562 30.5293C99.5126 24.9785 99.6083 19.4277 99.6083 13.877ZM93.2441 32.0605C90.0859 32.0605 86.8798 32.0605 83.8173 32.0605C83.8173 27.9932 83.4824 24.0693 83.913 20.1455C84.3437 15.8389 88.7939 12.3457 93.1484 12.25C94.1533 12.25 94.3447 12.8242 94.2968 13.6377C94.2968 16.3652 94.2968 19.0449 94.2968 21.7725C94.2968 24.7393 94.2968 27.6582 94.2968 30.625C94.2968 31.4385 94.1054 32.0605 93.2441 32.0605Z" fill="#31587A"/>
</svg>
