<svg width="736" height="752" viewBox="0 0 736 752" fill="none" xmlns="http://www.w3.org/2000/svg">
<path opacity="0.37" d="M65.1191 611.259C66.7169 615.212 68.483 619.165 70.4173 622.949C99.1792 679.379 157.544 714.953 219.777 721.345C269.564 726.391 318.005 710.16 359.634 683.669C401.179 657.261 434.482 620.09 480.652 600.747C545.745 573.583 618.323 552.138 669.371 494.614C727.399 429.269 749.769 330.2 722.437 246.606C695.862 165.03 607.642 138.623 539.101 102.712C415.896 38.0403 245.259 -4.93431 117.008 71.0071C-36.6408 161.918 -8.71989 368.297 39.9735 511.518C51.0745 544.148 52.4201 579.302 65.1191 611.259Z" fill="#A8DADC"/>
<path d="M143.499 224.571L143.247 222.973H141.649C110.533 222.973 100.441 212.966 100.357 212.882L99.011 211.368L97.6654 212.882C97.5813 212.966 87.5735 222.973 56.3728 222.973H54.7749L54.5226 224.571C54.4385 225.076 47.8788 275.199 98.17 300.933L99.011 301.354L99.852 300.933C150.311 275.199 143.499 225.076 143.499 224.571ZM135.93 255.604C129.707 273.601 117.26 287.562 98.9269 297.149C80.5933 287.562 68.1466 273.601 61.9233 255.604C57.382 242.4 57.6342 230.879 57.9706 226.758C83.8731 226.422 95.3947 219.525 98.9269 216.666C102.459 219.441 113.981 226.422 139.883 226.758C140.219 230.963 140.472 242.4 135.93 255.604ZM192.865 160.152L191.099 155.526C189.502 155.358 187.988 154.937 186.474 154.433L182.858 157.797L172.429 150.312L174.448 145.771C173.439 144.509 172.598 143.163 171.925 141.734L166.963 141.566L164.861 128.867L169.486 127.101C169.654 125.503 170.075 123.989 170.579 122.475L167.215 118.859L174.7 108.347L179.241 110.365C180.503 109.356 181.849 108.515 183.278 107.842L183.446 102.88L196.145 100.778L197.911 105.403C199.509 105.571 201.023 105.992 202.537 106.496L206.153 103.132L216.581 110.617L214.563 115.159C215.572 116.42 216.413 117.766 217.086 119.195L222.048 119.363L224.15 132.062L219.525 133.829C219.273 135.426 218.936 136.94 218.432 138.454L221.796 142.07L214.311 152.583L209.769 150.564C208.508 151.573 207.162 152.414 205.733 153.087L205.564 158.049L192.865 160.152ZM185.633 150.396L186.642 150.817C188.492 151.573 190.511 151.994 192.529 152.162L193.622 152.246L195.136 156.199L202.116 155.021L202.285 150.817L203.294 150.396C205.144 149.555 206.826 148.462 208.424 147.2L209.265 146.527L213.133 148.294L217.254 142.575L214.311 139.463L214.731 138.454C215.488 136.604 215.909 134.585 216.077 132.567L216.161 131.474L220.114 129.96L218.936 122.98L214.731 122.812L214.311 121.802C213.47 119.952 212.376 118.27 211.115 116.672L210.442 115.831L212.208 111.963L206.49 107.842L203.378 110.701L202.369 110.281C200.519 109.524 198.5 109.103 196.482 108.935L195.388 108.851L193.875 104.898L186.894 106.076L186.726 110.281L185.717 110.701C183.867 111.542 182.185 112.636 180.587 113.897L179.746 114.57L175.877 112.804L171.757 118.522L174.7 121.634L174.28 122.643C173.523 124.494 173.102 126.512 172.934 128.53L172.85 129.624L168.897 131.137L170.075 138.118L174.28 138.286L174.7 139.295C175.541 141.145 176.634 142.827 177.896 144.425L178.569 145.266L176.803 149.135L182.521 153.255L185.633 150.396ZM194.379 144.509C191.52 144.509 188.661 143.584 186.306 141.902C179.998 137.445 178.569 128.698 183.026 122.391C187.483 116.084 196.229 114.654 202.537 119.111C205.564 121.298 207.583 124.494 208.256 128.194C208.844 131.894 208.003 135.595 205.901 138.622C203.714 141.65 200.518 143.668 196.818 144.341C195.893 144.425 195.136 144.509 194.379 144.509ZM194.379 120.036C191.099 120.036 187.904 121.55 185.885 124.409C184.287 126.68 183.615 129.455 184.119 132.231C184.624 135.006 186.053 137.361 188.324 138.959C190.595 140.556 193.37 141.229 196.145 140.725C198.921 140.22 201.275 138.79 202.873 136.52C204.471 134.249 205.144 131.474 204.639 128.698C204.135 125.923 202.705 123.568 200.434 121.971C198.584 120.709 196.482 120.036 194.379 120.036ZM596.036 297.233L592.084 286.889C587.879 286.384 583.674 285.459 579.721 284.029L571.648 291.598L549.782 276.04L554.323 265.948C551.716 262.668 549.445 259.052 547.595 255.183L536.578 254.847L532.121 228.356L542.465 224.403C542.97 220.198 543.895 215.993 545.325 212.041L537.756 203.967L553.314 182.101L563.406 186.643C566.686 184.036 570.302 181.765 574.17 179.915L574.507 168.898L600.998 164.441L604.951 174.785C609.156 175.289 613.361 176.214 617.313 177.644L625.387 170.075L647.253 185.634L642.711 195.725C645.318 199.005 647.589 202.622 649.439 206.49L660.456 206.826L664.913 233.318L654.569 237.27C654.065 241.475 653.139 245.68 651.71 249.633L659.279 257.706L643.72 279.572L633.629 275.031C630.349 277.638 626.732 279.909 622.864 281.759L622.527 292.776L596.036 297.233ZM578.544 278.647L579.889 279.152C584.346 280.834 589.056 281.927 593.85 282.347L595.363 282.516L598.98 291.935L617.818 288.739L618.154 278.647L619.5 278.058C623.873 276.124 627.994 273.517 631.694 270.405L632.788 269.48L642.038 273.601L653.139 258.043L646.243 250.642L646.748 249.296C648.43 244.839 649.523 240.13 649.944 235.336L650.028 233.822L659.447 230.206L656.251 211.368L646.159 211.031L645.571 209.686C643.636 205.313 641.029 201.192 637.918 197.491L636.992 196.398L641.113 187.147L625.555 176.046L618.154 182.942L616.809 182.438C612.351 180.756 607.642 179.662 602.848 179.242L601.334 179.158L597.718 169.739L578.88 172.935L578.544 183.026L577.198 183.615C572.825 185.549 568.704 188.156 565.004 191.268L563.91 192.193L554.66 188.072L543.727 203.631L550.623 211.031L550.118 212.377C548.436 216.834 547.343 221.544 546.922 226.337L546.838 227.851L537.419 231.467L540.615 250.306L550.707 250.642L551.296 251.988C553.23 256.361 555.837 260.482 558.949 264.182L559.874 265.275L555.753 274.526L571.311 285.627L578.544 278.647ZM598.391 261.323C592.252 261.323 586.113 259.472 580.73 255.688C567.022 245.933 563.826 226.842 573.582 213.134C583.337 199.426 602.428 196.23 616.136 205.985C629.844 215.741 633.04 234.831 623.284 248.54C617.313 256.865 607.894 261.323 598.391 261.323ZM598.475 205.06C590.402 205.06 582.412 208.845 577.45 215.909C573.414 221.544 571.9 228.356 572.993 235.168C574.17 241.98 577.871 247.867 583.505 251.904C595.111 260.145 611.258 257.454 619.5 245.848C623.452 240.214 625.05 233.402 623.957 226.59C622.78 219.778 619.079 213.891 613.445 209.854C608.819 206.574 603.605 205.06 598.475 205.06ZM186.558 486.456C182.521 475.102 177.896 462.319 183.026 449.2C189.922 431.539 175.289 422.456 162.422 414.299C151.321 407.403 140.892 400.843 144.424 389.994C148.293 378.22 148.041 369.138 143.668 363.167C139.967 358.121 133.407 355.429 124.661 355.514C117.681 355.598 111.458 347.02 104.814 338.021C96.9926 327.424 89.0032 316.492 78.9113 318.93C77.1452 319.351 75.7155 320.36 74.8745 321.958C71.3424 328.602 76.8929 344.412 82.864 361.232C89.2555 379.398 96.5721 399.918 91.7785 408.664C86.5643 418.251 95.9834 426.998 105.991 436.333C116.588 446.172 128.614 457.357 125.418 471.402C122.391 484.521 121.718 489.399 123.568 492.259C124.998 494.529 127.941 495.034 132.398 495.875C135.426 496.464 139.294 497.136 144.004 498.65C164.272 504.958 170.159 518.077 170.243 518.245L170.495 518.834L171.084 518.75C180.839 517.236 186.558 514.461 189.249 510.003C189.417 509.751 189.502 509.499 189.67 509.247C192.529 503.276 189.754 495.454 186.558 486.456Z" fill="#EE9055"/>
<path d="M134.753 461.395C138.117 466.609 140.556 471.15 140.304 477.542C140.135 483.513 139.21 489.4 138.706 495.287C138.622 496.548 138.537 497.726 138.453 498.903C136.771 497.473 135.174 496.044 133.492 494.614C132.735 494.53 131.978 494.53 131.137 494.53C133.492 496.464 135.93 498.567 138.285 500.669C138.033 504.79 137.949 508.911 137.949 513.032C137.949 515.47 137.865 518.078 138.033 520.516C135.846 519.171 133.576 517.825 131.473 516.48C124.913 512.443 118.774 508.658 114.065 506.64C110.448 505.126 106.412 503.781 102.543 502.519C92.4512 499.239 82.107 495.875 78.659 488.727C76.8929 485.027 77.0611 480.569 79.1636 475.187C84.4618 461.311 79.5 458.956 71.1742 454.919C65.119 451.976 56.8773 448.023 48.6356 438.015C45.0193 433.642 41.8236 429.858 38.9642 426.578C30.4702 416.57 25.7607 411.104 26.3494 407.908C26.5176 407.151 26.9381 406.478 27.779 405.805C28.1995 405.469 28.7041 405.133 29.3769 404.796C32.5727 403.03 35.7685 404.376 39.3847 405.889C44.2625 407.908 50.2335 410.515 58.5593 406.226C65.119 402.862 72.4356 399.75 76.8088 402.273C79.8364 403.955 81.6024 408.328 82.1911 415.477C82.3593 417.747 83.1162 419.345 84.3777 420.27C86.2279 421.616 89.0872 421.448 92.3671 420.775C94.6378 423.887 97.5813 425.4 101.113 426.662C106.075 428.428 109.776 430.026 113.392 434.063C121.129 442.809 128.614 451.723 134.753 461.395Z" fill="#77ABBD"/>
<path d="M107.925 475.271C102.88 471.907 98.5064 463.749 94.3014 455.844C88.5827 445.079 82.6116 433.978 74.454 434.231C61.3346 434.567 49.6448 419.093 49.4766 419.009L48.3833 419.85C48.8879 420.522 60.6618 435.997 74.454 435.66C81.7707 435.492 87.5735 446.173 93.0399 456.601C97.329 464.59 101.786 472.916 107.084 476.532C110.28 478.635 116.167 482.924 123.147 488.39C123.147 487.802 123.147 487.213 123.147 486.624C117.008 481.494 111.542 477.626 107.925 475.271Z" fill="white"/>
<path d="M551.128 579.469C551.128 579.469 558.696 560.631 544.904 533.888C531.028 507.144 519.843 511.265 553.23 490.661C586.617 470.056 553.398 405.3 581.824 397.059C610.249 388.817 634.89 283.945 656.504 297.317C678.117 310.689 649.271 362.073 664.745 377.548C680.135 393.022 682.238 412.617 650.364 428.512C618.491 444.406 672.987 505.126 629.76 523.628C586.533 542.129 598.98 614.707 551.128 579.469Z" fill="#EE9055"/>
<path d="M564.331 599.402C564.247 599.149 559.621 575.097 574.339 543.98C589.308 512.275 596.457 477.626 593.513 451.219C591.915 436.922 601.082 431.372 609.913 425.989C618.659 420.691 627.658 415.141 627.153 401.096C626.732 388.397 632.115 358.626 632.283 357.365L634.217 357.701C634.133 358.037 628.667 388.565 629.087 401.012C629.592 416.234 620.089 422.037 610.922 427.587C602.176 432.885 594.018 437.931 595.448 450.967C598.475 477.626 591.243 512.695 576.105 544.737C561.724 575.265 566.181 598.729 566.265 598.981L564.331 599.402Z" fill="white"/>
<path d="M679.126 443.145C691.152 437.426 703.935 440.033 697.292 452.06C690.648 464.086 680.724 465.011 682.574 474.514C684.424 484.017 689.302 494.361 673.66 500.416C658.017 506.387 650.701 505.378 641.198 522.955C631.61 540.532 628.33 553.567 611.931 549.362C595.532 545.073 609.156 523.46 617.65 514.377C617.65 514.377 629.171 504.621 629.003 487.045C628.835 469.468 621.602 457.694 644.309 458.872C667.016 459.881 670.969 447.014 679.126 443.145Z" fill="#31587A"/>
<path d="M609.324 561.641C609.997 559.37 625.807 504.958 638.759 499.071C651.962 493.016 659.111 477.206 662.222 468.375C666.259 456.854 683.499 454.583 684.172 454.499L684.424 456.433C684.256 456.433 667.689 458.62 664.072 468.964C660.204 480.149 652.803 494.782 639.6 500.837C627.489 506.388 611.426 561.641 611.258 562.23L609.324 561.641ZM192.781 517.825C166.879 511.35 166.543 497.389 166.206 483.933C165.954 472.916 165.702 462.488 151.657 456.097C133.071 447.603 132.651 431.876 132.23 418C131.894 407.656 131.641 397.9 123.904 392.602C105.318 379.903 89.5919 349.123 89.4237 348.786L90.8534 348.029C91.0216 348.366 106.496 378.726 124.829 391.256C133.239 396.975 133.576 407.151 133.828 417.916C134.248 431.96 134.669 446.593 152.33 454.583C167.215 461.395 167.552 472.832 167.804 483.849C168.14 497.305 168.477 510.088 193.202 516.227L192.781 517.825Z" fill="white"/>
<path d="M157.88 505.378H583.337V198.249C583.337 193.876 579.805 190.259 575.348 190.259H165.87C161.497 190.259 157.88 193.792 157.88 198.249V505.378Z" fill="#F7F7F7"/>
<path d="M172.909 448.119L567.502 448.119V205.661L172.909 205.661L172.909 448.119Z" fill="#1D3557" stroke="white" stroke-width="0.420495" stroke-miterlimit="10"/>
<path d="M583.337 459.881H370.651H158.048L111.458 633.882H372.081H629.844L583.337 459.881Z" fill="#F2F2F2"/>
<path d="M174.111 490.409H200.266C201.36 490.409 202.201 491.25 201.948 492.175L199.425 503.528C199.257 504.201 198.584 504.706 197.743 504.706H171.168C170.075 504.706 169.234 503.865 169.486 502.855L172.429 491.502C172.598 490.913 173.27 490.409 174.111 490.409Z" fill="#1D3557" stroke="white" stroke-width="0.420495" stroke-miterlimit="10"/>
<path d="M212.208 490.409H231.972L229.365 504.79H209.181L212.208 490.409Z" fill="#1D3557" stroke="white" stroke-width="0.420495" stroke-miterlimit="10"/>
<path d="M241.811 490.409H261.574L259.556 504.79H239.372L241.811 490.409Z" fill="#1D3557" stroke="white" stroke-width="0.420495" stroke-miterlimit="10"/>
<path d="M271.498 490.409H291.261L289.748 504.79H269.564L271.498 490.409Z" fill="#1D3557" stroke="white" stroke-width="0.420495" stroke-miterlimit="10"/>
<path d="M301.101 490.409H320.864L319.939 504.79H299.755L301.101 490.409Z" fill="#1D3557" stroke="white" stroke-width="0.420495" stroke-miterlimit="10"/>
<path d="M330.704 490.409H350.467L350.131 504.79H329.947L330.704 490.409Z" fill="#1D3557" stroke="white" stroke-width="0.420495" stroke-miterlimit="10"/>
<path d="M567.863 490.409H538.176L541.372 504.79H571.563L567.863 490.409Z" fill="#1D3557" stroke="white" stroke-width="0.420495" stroke-miterlimit="10"/>
<path d="M528.337 490.409H508.573L511.18 504.79H531.364L528.337 490.409Z" fill="#1D3557" stroke="white" stroke-width="0.420495" stroke-miterlimit="10"/>
<path d="M498.734 490.409H478.97L480.989 504.79H501.173L498.734 490.409Z" fill="#1D3557" stroke="white" stroke-width="0.420495" stroke-miterlimit="10"/>
<path d="M469.047 490.409H449.284L450.797 504.79H470.981L469.047 490.409Z" fill="#1D3557" stroke="white" stroke-width="0.420495" stroke-miterlimit="10"/>
<path d="M439.444 490.409H419.681L420.606 504.79H440.789L439.444 490.409Z" fill="#1D3557" stroke="white" stroke-width="0.420495" stroke-miterlimit="10"/>
<path d="M409.841 490.409H390.078L390.414 504.79H410.598L409.841 490.409Z" fill="#1D3557" stroke="white" stroke-width="0.420495" stroke-miterlimit="10"/>
<path d="M360.391 490.409H380.154L380.406 504.79H360.391V490.409Z" fill="#1D3557" stroke="white" stroke-width="0.420495" stroke-miterlimit="10"/>
<path d="M165.449 515.47H206.658L204.303 530.272H162.253L165.449 515.47Z" fill="#1D3557" stroke="white" stroke-width="0.420495" stroke-miterlimit="10"/>
<path d="M574.255 515.47H523.291L526.15 530.272H578.207L574.255 515.47Z" fill="#1D3557" stroke="white" stroke-width="0.420495" stroke-miterlimit="10"/>
<path d="M513.031 515.47H492.679L494.949 530.272H515.806L513.031 515.47Z" fill="#1D3557" stroke="white" stroke-width="0.420495" stroke-miterlimit="10"/>
<path d="M482.418 515.47H462.067L463.749 530.272H484.605L482.418 515.47Z" fill="#1D3557" stroke="white" stroke-width="0.420495" stroke-miterlimit="10"/>
<path d="M451.806 515.47H431.454L432.632 530.272H453.404L451.806 515.47Z" fill="#1D3557" stroke="white" stroke-width="0.420495" stroke-miterlimit="10"/>
<path d="M421.194 515.47H400.842L401.431 530.272H422.204L421.194 515.47Z" fill="#1D3557" stroke="white" stroke-width="0.420495" stroke-miterlimit="10"/>
<path d="M159.226 541.793H201.444L198.332 556.511H155.357L159.226 541.793Z" fill="#1D3557" stroke="white" stroke-width="0.420495" stroke-miterlimit="10"/>
<path d="M211.956 541.793H233.065L230.626 556.511H209.097L211.956 541.793Z" fill="#1D3557" stroke="white" stroke-width="0.420495" stroke-miterlimit="10"/>
<path d="M243.661 541.793H264.77H401.852L402.44 556.511H241.307L243.661 541.793Z" fill="#1D3557" stroke="white" stroke-width="0.420495" stroke-miterlimit="10"/>
<path d="M412.448 541.793H433.557L434.734 556.511H413.205L412.448 541.793Z" fill="#1D3557" stroke="white" stroke-width="0.420495" stroke-miterlimit="10"/>
<path d="M444.069 541.793H465.178L466.944 556.511H445.415L444.069 541.793Z" fill="#1D3557" stroke="white" stroke-width="0.420495" stroke-miterlimit="10"/>
<path d="M475.775 541.793H496.884L499.154 556.511H477.709L475.775 541.793Z" fill="#1D3557" stroke="white" stroke-width="0.420495" stroke-miterlimit="10"/>
<path d="M507.396 541.793H528.505L531.364 556.511H509.919L507.396 541.793Z" fill="#1D3557" stroke="white" stroke-width="0.420495" stroke-miterlimit="10"/>
<path d="M539.017 541.793H581.235L585.103 556.511H542.129L539.017 541.793Z" fill="#1D3557" stroke="white" stroke-width="0.420495" stroke-miterlimit="10"/>
<path d="M390.666 515.47H370.399V530.272H391.003L390.666 515.47Z" fill="#1D3557" stroke="white" stroke-width="0.420495" stroke-miterlimit="10"/>
<path d="M360.054 515.47H339.618L339.03 530.272H359.886L360.054 515.47Z" fill="#1D3557" stroke="white" stroke-width="0.420495" stroke-miterlimit="10"/>
<path d="M329.442 515.47H309.006L307.829 530.272H328.685L329.442 515.47Z" fill="#1D3557" stroke="white" stroke-width="0.420495" stroke-miterlimit="10"/>
<path d="M298.83 515.47H278.394L276.628 530.272H297.485L298.83 515.47Z" fill="#1D3557" stroke="white" stroke-width="0.420495" stroke-miterlimit="10"/>
<path d="M268.218 515.47H247.782L245.427 530.272H266.284L268.218 515.47Z" fill="#1D3557" stroke="white" stroke-width="0.420495" stroke-miterlimit="10"/>
<path d="M237.606 515.47H217.17L214.311 530.272H235.083L237.606 515.47Z" fill="#1D3557" stroke="white" stroke-width="0.420495" stroke-miterlimit="10"/>
<path d="M175.037 481.41L178.4 468.627H187.988L184.876 481.41H175.037Z" fill="#1D3557" stroke="white" stroke-width="0.420495" stroke-miterlimit="10"/>
<path d="M197.575 468.627H216.75L214.143 481.41H194.547L197.575 468.627Z" fill="#1D3557" stroke="white" stroke-width="0.420495" stroke-miterlimit="10"/>
<path d="M226.421 468.627H245.596L243.409 481.41H223.898L226.421 468.627Z" fill="#1D3557" stroke="white" stroke-width="0.420495" stroke-miterlimit="10"/>
<path d="M255.183 468.627H274.358L272.676 481.41H253.165L255.183 468.627Z" fill="#1D3557" stroke="white" stroke-width="0.420495" stroke-miterlimit="10"/>
<path d="M283.945 468.627H303.119L301.942 481.41H282.431L283.945 468.627Z" fill="#1D3557" stroke="white" stroke-width="0.420495" stroke-miterlimit="10"/>
<path d="M312.707 468.627H331.881L331.208 481.41H311.697L312.707 468.627Z" fill="#1D3557" stroke="white" stroke-width="0.420495" stroke-miterlimit="10"/>
<path d="M341.468 468.627H360.643L360.475 481.41H340.964L341.468 468.627Z" fill="#1D3557" stroke="white" stroke-width="0.420495" stroke-miterlimit="10"/>
<path d="M370.23 468.627H389.405L389.741 481.41H370.23V468.627Z" fill="#1D3557" stroke="white" stroke-width="0.420495" stroke-miterlimit="10"/>
<path d="M398.992 468.627H418.167L419.008 481.41H399.497L398.992 468.627Z" fill="#1D3557" stroke="white" stroke-width="0.420495" stroke-miterlimit="10"/>
<path d="M427.754 468.627H447.013L448.274 481.41H428.763L427.754 468.627Z" fill="#1D3557" stroke="white" stroke-width="0.420495" stroke-miterlimit="10"/>
<path d="M456.6 468.627H475.775L477.625 481.41H458.114L456.6 468.627Z" fill="#1D3557" stroke="white" stroke-width="0.420495" stroke-miterlimit="10"/>
<path d="M485.362 468.627H504.537L506.891 481.41H487.38L485.362 468.627Z" fill="#1D3557" stroke="white" stroke-width="0.420495" stroke-miterlimit="10"/>
<path d="M514.124 468.627H533.298L536.158 481.41H516.647L514.124 468.627Z" fill="#1D3557" stroke="white" stroke-width="0.420495" stroke-miterlimit="10"/>
<path d="M542.886 468.627H562.06L565.424 481.41H545.913L542.886 468.627Z" fill="#1D3557" stroke="white" stroke-width="0.420495" stroke-miterlimit="10"/>
<path d="M616.304 647.422H124.998C117.513 647.422 111.458 641.367 111.458 633.882H629.844C629.844 641.367 623.789 647.422 616.304 647.422ZM430.95 577.62C430.445 574.592 427.754 572.321 424.727 572.321H370.735H316.659C313.548 572.321 310.941 574.592 310.436 577.62L303.708 618.408C303.035 622.276 306.063 625.808 309.931 625.808H370.651H431.37C435.323 625.808 438.266 622.276 437.594 618.408L430.95 577.62Z" fill="#D3D3D3"/>
<path d="M243.493 226.254H199.509V230.795H243.493V226.254Z" fill="#F7F7F7"/>
<path d="M287.561 260.146H255.856V264.687H287.561V260.146Z" fill="#F7F7F7"/>
<path d="M313.548 260.146H292.523V264.687H313.548V260.146Z" fill="#F7F7F7"/>
<path d="M221.039 345.422H200.014V349.963H221.039V345.422Z" fill="#F7F7F7"/>
<path d="M368.632 260.146H317.753V264.687H368.632V260.146Z" fill="#F7F7F7"/>
<path d="M232.728 328.35H200.014V332.891H232.728V328.35Z" fill="#F7F7F7"/>
<path d="M265.527 362.326H245.596V366.867H265.527V362.326Z" fill="#F7F7F7"/>
<path d="M239.54 362.326H200.014V366.867H239.54V362.326Z" fill="#F7F7F7"/>
<path d="M221.796 379.314H200.014V383.856H221.796V379.314Z" fill="#F7F7F7"/>
<path d="M283.272 226.254H252.071V230.795H283.272V226.254Z" fill="#F7F7F7"/>
<path d="M283.272 277.134H252.071V281.675H283.272V277.134Z" fill="#F7F7F7"/>
<path d="M249.801 294.038H236.429V298.579H249.801V294.038Z" fill="#F7F7F7"/>
<path d="M253.08 311.278H223.141V315.819H253.08V311.278Z" fill="#F7F7F7"/>
<path d="M298.999 311.278H257.622V315.819H298.999V311.278Z" fill="#F7F7F7"/>
<path d="M231.215 294.206H200.014V298.747H231.215V294.206Z" fill="#F7F7F7"/>
<path d="M218.516 311.278H200.014V315.819H218.516V311.278Z" fill="#F7F7F7"/>
<path d="M273.601 294.206H256.108V298.747H273.601V294.206Z" fill="#F7F7F7"/>
<path d="M218.095 396.218H200.603V400.759H218.095V396.218Z" fill="#F7F7F7"/>
<path d="M231.131 260.146H199.93V264.687H231.131V260.146Z" fill="#F7F7F7"/>
<path d="M258.715 345.422H227.514V349.963H258.715V345.422Z" fill="#F7F7F7"/>
<path d="M259.136 379.314H227.935V383.856H259.136V379.314Z" fill="#F7F7F7"/>
<path d="M314.557 379.314H283.356V383.856H314.557V379.314Z" fill="#F7F7F7"/>
<path d="M244.418 277.134H199.93V281.675H244.418V277.134Z" fill="#F7F7F7"/>
<path d="M439.612 226.254H408.411V230.795H439.612V226.254Z" fill="#F7F7F7"/>
<path d="M328.433 396.218H297.232V400.759H328.433V396.218Z" fill="#F7F7F7"/>
<path d="M470.14 226.254H449.284V230.795H470.14V226.254Z" fill="#F7F7F7"/>
<path d="M540.867 243.242H520.011V247.783H540.867V243.242Z" fill="#F7F7F7"/>
<path d="M331.461 226.254H291.682V230.795H331.461V226.254Z" fill="#F7F7F7"/>
<path d="M486.371 243.242H446.592V247.783H486.371V243.242Z" fill="#F7F7F7"/>
<path d="M437.594 260.146H397.815V264.687H437.594V260.146Z" fill="#F7F7F7"/>
<path d="M385.873 277.134H346.094V281.675H385.873V277.134Z" fill="#F7F7F7"/>
<path d="M470.813 260.146H442.556V264.687H470.813V260.146Z" fill="#F7F7F7"/>
<path d="M400.59 226.254H360.811V230.795H400.59V226.254Z" fill="#F7F7F7"/>
<path d="M338.777 277.134H315.482V281.675H338.777V277.134Z" fill="#F7F7F7"/>
<path d="M320.528 345.674H297.232V350.216H320.528V345.674Z" fill="#F7F7F7"/>
<path d="M353.326 226.254H338.777V230.795H353.326V226.254Z" fill="#F7F7F7"/>
<path d="M306.231 277.134H291.682V281.675H306.231V277.134Z" fill="#F7F7F7"/>
<path d="M510.508 243.242H495.958V247.783H510.508V243.242Z" fill="#F7F7F7"/>
<path d="M222.3 243.242H199.509V247.783H222.3V243.242Z" fill="#F7F7F7"/>
<path d="M278.31 328.434H260.313V332.975H278.31V328.434Z" fill="#F7F7F7"/>
<path d="M235.251 243.242H227.935V247.783H235.251V243.242Z" fill="#F7F7F7"/>
<path d="M439.612 243.242H378.809V247.783H439.612V243.242Z" fill="#F7F7F7"/>
<path d="M381.331 379.314H320.528V383.856H381.331V379.314Z" fill="#F7F7F7"/>
<path d="M248.119 243.242H240.634V247.783H248.119V243.242Z" fill="#F7F7F7"/>
<path d="M373.174 243.242H353.326V247.783H373.174V243.242Z" fill="#F7F7F7"/>
<path d="M393.105 260.146H373.258V264.687H393.105V260.146Z" fill="#F7F7F7"/>
<path d="M290.841 396.218H270.994V400.759H290.841V396.218Z" fill="#F7F7F7"/>
<path d="M348.112 243.242H305.81V247.783H348.112V243.242Z" fill="#F7F7F7"/>
<path d="M291.093 345.674H266.368V350.216H291.093V345.674Z" fill="#F7F7F7"/>
<path d="M277.217 379.314H264.854V383.856H277.217V379.314Z" fill="#F7F7F7"/>
<path d="M299.755 243.242H285.206V247.783H299.755V243.242Z" fill="#F7F7F7"/>
<path d="M250.81 260.146H236.261V264.687H250.81V260.146Z" fill="#F7F7F7"/>
<path d="M253.669 328.434H239.12V332.975H253.669V328.434Z" fill="#F7F7F7"/>
<path d="M279.74 243.242H254.342V247.783H279.74V243.242Z" fill="#F7F7F7"/>
<path d="M467.281 277.302C467.281 277.302 474.681 289.832 477.793 291.851C481.998 294.626 479.391 297.401 477.373 297.485C475.354 297.485 465.094 298.242 462.823 295.635C460.553 293.028 459.459 285.375 457.357 283.357C455.255 281.338 453.068 273.349 458.366 271.415C462.992 269.649 467.281 277.302 467.281 277.302Z" fill="#E63946"/>
<path d="M464.001 271.835C464.001 271.835 472.495 286.553 473.925 288.655C475.354 290.842 471.149 290.842 468.542 289.833C465.935 288.823 459.375 278.311 458.45 276.377C457.357 274.106 458.282 271.499 458.282 271.499L464.001 271.835Z" fill="#FFE3CA"/>
<path d="M455.423 279.656L457.441 294.71L458.45 294.794L458.114 283.946L455.423 279.656Z" fill="#E63946"/>
<path d="M393.862 277.302C393.862 277.302 401.263 289.832 404.375 291.851C408.58 294.626 405.972 297.401 403.954 297.485C401.936 297.485 391.676 298.242 389.405 295.635C387.134 293.028 386.041 285.375 383.939 283.357C381.836 281.338 379.565 273.097 384.948 271.415C389.657 269.901 393.862 277.302 393.862 277.302Z" fill="#E63946"/>
<path d="M391.087 271.835C391.087 271.835 399.076 286.469 400.59 288.655C402.02 290.842 397.815 290.842 395.208 289.833C392.601 288.823 386.041 278.311 385.116 276.377C384.023 274.106 384.948 271.499 384.948 271.499L391.087 271.835Z" fill="#FFE3CA"/>
<path d="M382.088 279.656L384.023 294.71L385.116 294.794L384.779 283.946L382.088 279.656Z" fill="#E63946"/>
<path d="M361.064 163.179L428.006 193.707C428.006 193.707 435.491 196.146 436.332 204.472C438.939 230.374 458.282 271.415 458.282 271.415C464.505 274.442 464.001 271.835 464.001 271.835C460.048 259.22 455.339 207.415 453.573 186.643C453.236 182.27 452.984 179.242 452.9 178.233C452.9 177.56 452.143 176.719 450.881 175.71C441.715 168.225 403.87 152.835 403.87 152.835C375.697 152.078 361.064 163.179 361.064 163.179Z" fill="#FFE3CA"/>
<path d="M348.449 176.299C350.551 194.38 376.37 192.362 376.37 192.362H407.654C407.654 192.362 399.413 210.695 396.217 226.085C392.853 242.485 384.864 271.415 384.864 271.415C384.864 271.415 385.368 272.424 391.087 271.835C391.087 271.835 415.644 222.89 425.063 210.527C427.081 207.92 432.884 193.455 433.893 184.877C434.23 182.018 434.062 179.747 432.968 178.822C431.875 177.897 429.352 176.215 426.072 174.112C416.233 167.889 399.245 158.386 389.741 156.283C377.042 153.424 356.943 148.042 356.943 148.042C356.943 148.042 346.346 158.217 348.449 176.299Z" fill="#FFE3CA"/>
<path d="M369.726 36.8627C369.726 36.8627 365.016 27.9482 367.287 18.5291C369.558 9.02592 378.388 -0.393178 391.255 3.97997C404.122 8.35312 414.551 18.2768 406.813 29.8825C399.076 41.404 413.794 46.7023 410.009 52.1687C406.225 57.6352 407.654 63.438 409.252 64.6995C410.85 65.961 415.98 70.5023 415.392 75.9687C414.803 81.3511 390.414 60.2422 390.414 60.2422C390.414 60.2422 377.211 33.4146 369.726 36.8627Z" fill="#31587A"/>
<path d="M409 150.565C409 150.565 407.066 159.984 357.027 148.126C357.027 148.126 373.763 142.575 409 150.565Z" fill="#EB4747"/>
<path d="M356.438 150.733C355.681 152.246 354.924 153.676 354.083 155.19C372.333 155.694 390.666 156.283 408.916 156.788C406.057 147.116 406.982 133.997 407.486 124.073C408.075 111.879 414.803 103.469 414.13 91.1905C417.746 91.7792 418.335 91.8633 421.951 92.452C416.401 76.6414 414.551 68.8202 397.31 62.765C391.676 60.7467 388.059 60.4103 382.004 60.9149C362.073 62.5969 356.102 62.765 346.262 80.8463C361.568 83.2852 359.045 88.7517 363.671 104.058C365.941 111.458 368.296 119.784 367.119 127.605C365.941 135.258 356.438 143.752 356.438 150.733Z" fill="white"/>
<path d="M388.228 66.5494C380.07 65.0357 381.836 60.4943 381.836 60.4943C381.836 60.4943 382.172 57.9713 382.341 54.6915C382.341 53.8505 382.425 53.0095 382.425 52.0844C382.425 50.7388 382.341 49.3932 382.172 48.0477C381.5 42.5812 396.974 45.8611 396.974 45.8611C396.974 45.8611 396.049 56.9622 398.235 60.242C400.338 63.606 396.385 68.1473 388.228 66.5494Z" fill="#FFE3CA"/>
<path d="M372.669 60.4948C372.669 60.4948 389.153 79.5011 395.208 83.8743C395.208 83.8743 402.188 77.5669 397.899 60.9153C397.899 60.9153 389.994 56.8785 372.669 60.4948Z" fill="#FFE3CA"/>
<path d="M373.174 14.7448C373.174 14.7448 364.596 31.2282 373.09 46.7865C381.584 62.3449 398.235 39.9745 399.245 37.3674C400.338 34.7604 406.057 19.8748 394.703 15.4176C383.35 10.8762 375.613 10.2875 373.174 14.7448Z" fill="#FFE3CA"/>
<path d="M389.657 48.4685C389.657 48.4685 388.143 51.7484 382.341 54.6918C382.341 53.8508 382.425 53.0099 382.425 52.0848C382.425 52.0848 386.377 51.6643 389.657 48.4685Z" fill="#FCD2B1"/>
<path d="M303.288 135.931C303.288 135.931 299.251 137.697 297.316 136.941C295.382 136.1 292.439 135.931 291.514 135.931C290.252 135.931 286.3 134.502 286.384 136.1C286.468 137.613 292.775 138.707 294.037 139.211C295.298 139.716 290.168 142.491 289.663 143.753C289.159 145.014 295.046 153.256 298.326 150.901C301.606 148.546 303.372 143.837 304.044 143.5C304.717 143.164 306.483 141.902 306.483 141.902L303.288 135.931Z" fill="#FFE3CA"/>
<path d="M290.336 142.995C290.336 142.995 280.833 150.901 280.665 151.994C280.497 153.087 281.001 153.592 281.926 152.835C282.852 152.162 291.346 145.434 291.346 145.434C291.346 145.434 281.842 156.704 281.506 157.545C281.338 158.049 282.263 159.058 282.767 158.722C283.272 158.386 293.448 147.789 293.448 147.789C293.448 147.789 284.533 158.302 284.533 159.143C284.449 159.815 285.543 160.572 286.3 159.815C287.056 159.058 295.887 149.808 295.887 149.808C295.887 149.808 289.916 157.881 290.336 158.638C290.589 159.058 291.346 159.984 292.775 157.881C294.205 155.779 298.242 151.069 298.242 151.069L290.336 142.995Z" fill="#FFE3CA"/>
<path d="M404.375 192.278H376.37C376.37 192.278 350.551 194.38 348.449 176.215C346.346 158.133 356.943 148.042 356.943 148.042C356.943 148.042 370.567 151.658 382.509 154.517C388.48 153.256 395.628 152.415 404.038 152.667C404.038 152.667 454.498 169.319 452.984 178.149C452.984 178.233 431.875 166.964 404.375 192.278Z" fill="#31587A"/>
<path d="M386.125 160.993L439.612 160.152L412.616 173.86L386.125 160.993Z" fill="#F2F2F2"/>
<path d="M402.777 154.097C402.777 154.097 390.751 158.722 376.033 154.517L375.36 149.051L405.72 150.733L402.777 154.097Z" fill="white"/>
<path d="M412.616 173.86L386.125 163.6V160.993L414.719 171.253L412.616 173.86Z" fill="#D3D3D3"/>
<path d="M402.524 156.704C402.356 158.638 404.375 160.068 406.225 159.311L409.336 157.965C410.262 157.545 410.85 156.619 410.682 155.61C409.421 147.537 406.645 116.084 410.682 110.617C412.196 108.599 413.121 106.833 413.626 105.319C416.317 112.215 419.597 121.13 420.942 125.923L446.172 159.563L454.666 161.75C444.069 136.268 435.575 122.812 435.575 122.812C433.893 118.354 429.184 104.899 424.979 92.9565C422.288 85.3876 419.933 78.4074 418.587 74.707C417.915 72.7727 416.653 71.1749 414.887 70.1657C410.934 67.8109 404.459 64.1105 398.572 61.2512H398.488C398.319 61.1671 398.151 61.083 397.899 60.9989C409.168 77.9028 404.795 125.923 402.524 156.704C402.524 156.619 402.524 156.619 402.524 156.704ZM360.811 62.3445C357.195 62.9332 348.281 71.5953 343.571 80.3416C338.189 90.3494 332.638 101.703 328.517 105.403C320.948 112.299 299.671 136.604 298.662 136.015C298.242 135.763 304.465 143.248 305.306 143.584C305.726 143.752 340.207 113.813 343.571 109.272C346.683 104.983 355.093 86.8173 357.616 87.2378C357.784 87.6583 360.895 94.3021 363.755 103.973C363.839 104.142 363.839 104.31 363.923 104.478C365.941 111.206 365.773 118.607 364.68 126.848C363.839 133.072 359.213 143.248 356.438 148.21C356.102 148.798 356.186 149.976 356.522 150.817C356.775 151.321 357.027 151.742 357.447 151.91L367.623 155.694L369.978 156.535C371.66 157.208 373.51 156.872 374.856 155.863C375.949 155.106 376.79 153.844 376.958 152.33C379.229 135.006 382.088 117.261 384.359 110.617C394.367 81.3508 380.491 59.3169 380.491 59.3169C380.491 59.3169 364.007 61.1671 360.811 62.3445Z" fill="#E63946"/>
<path d="M412.616 173.86L428.511 130.464L479.727 131.305L464.59 171.337L412.616 173.86Z" fill="#EE9055"/>
<path d="M444.91 149.64C443.312 152.751 443.817 156.2 446.004 157.209C448.19 158.302 451.134 156.62 452.732 153.508C454.329 150.397 453.825 146.949 451.638 145.939C449.452 144.846 446.424 146.528 444.91 149.64Z" fill="#F2F0F0"/>
<path d="M413.794 67.6428C410.009 61.9241 407.318 57.3827 406.982 49.2251C406.729 43.8428 405.552 36.5261 401.852 32.9099C405.72 22.818 401.179 19.7904 399.329 16.5106C397.058 12.3897 380.238 2.46603 373.594 12.8943C366.951 23.2385 369.305 34.0873 369.305 34.0873C369.978 28.3685 375.865 20.6314 375.865 20.6314C376.79 26.6025 389.153 36.3579 394.535 40.3106C394.451 40.3947 394.367 40.5629 394.367 40.647C391.339 45.0201 395.124 49.3933 395.796 54.0187C396.469 58.6442 383.098 71.0909 397.983 77.3142C412.869 83.6216 417.578 73.2774 413.794 67.6428Z" fill="#31587A"/>
<path d="M143.079 557.52C143.079 557.52 142.742 561.052 126.259 561.052C109.776 561.052 85.8074 556.763 85.8074 556.763L124.072 553.062C124.072 553.062 138.79 552.305 143.079 557.52Z" fill="#31587A"/>
<path d="M101.113 558.781C91.7784 558.781 87.8258 563.575 84.1254 565.089C80.4251 566.602 76.7247 568.873 76.7247 568.789C78.8272 564.668 81.7706 564.584 83.2844 563.238C84.7982 561.893 84.3777 562.566 81.0978 562.313C79.2477 562.145 75.8837 565.593 73.5289 567.528C71.4265 569.125 70.165 569.294 70.165 569.294C70.165 569.294 72.6038 565.846 75.6314 563.07C79.3318 559.706 83.9572 556.931 85.0505 556.426C87.0689 555.585 93.2922 555.417 97.6654 556.006C102.711 556.679 107.841 558.781 101.113 558.781Z" fill="#31587A"/>
<path d="M85.6392 556.595C85.6392 556.595 78.4908 558.445 77.2293 559.454C76.3883 560.127 72.688 564.08 72.688 564.08C72.688 564.08 75.3791 563.659 76.8929 562.145C78.4908 560.547 85.6392 556.595 85.6392 556.595ZM129.539 550.287C129.539 550.287 147.536 551.465 146.275 562.566C145.602 568.873 141.481 571.06 136.015 570.555C125.923 569.714 114.485 568.2 114.485 568.2L109.355 550.96L129.539 550.287Z" fill="#31587A"/>
<path d="M133.323 551.801L150.984 494.866C150.984 494.866 153.591 486.54 157.88 488.054C164.02 490.325 160.992 497.137 160.487 501.173C159.394 509.415 160.151 513.031 154.432 532.879C150.9 545.157 147.873 559.286 144.845 567.359C142.743 572.91 139.126 564.92 133.66 562.734C123.4 558.613 133.323 551.801 133.323 551.801Z" fill="#31587A"/>
<path d="M134.669 463.917C138.117 473.841 148.798 478.971 158.637 475.355C168.393 471.739 173.607 460.722 170.159 450.798C166.711 440.874 156.03 435.744 146.191 439.361C136.435 442.977 131.221 453.994 134.669 463.917Z" fill="#31587A"/>
<path d="M115.326 464.843C120.709 472.916 131.473 474.935 139.294 469.384L138.201 459.881C146.022 454.246 147.957 443.145 142.574 435.072L138.874 429.605C133.492 421.532 122.727 419.513 114.906 425.064L111.374 427.587C103.552 433.221 101.618 444.323 107 452.396L115.326 464.843Z" fill="#31587A"/>
<path d="M108.262 438.352C109.187 439.697 110.196 440.959 111.374 442.22C119.111 450.63 129.455 453.826 136.015 450.378C139.042 454.499 142.49 457.778 145.602 460.301C149.218 463.245 158.469 464.422 158.469 464.422C163.851 470.309 143.668 504.706 142.238 504.538C139.294 504.285 135.51 485.279 138.285 478.383C139.547 475.271 141.565 471.571 140.976 469.889C138.874 464.086 135.93 465.095 135.93 465.095C135.93 465.095 132.062 469.636 129.034 469.468C125.923 469.216 120.54 464.338 120.288 464.254C119.363 463.497 118.522 462.572 117.765 461.479L109.692 449.369C107.589 446.005 107.085 441.968 108.262 438.352Z" fill="#FFE3CA"/>
<path d="M169.991 583.254C169.991 583.254 163.431 591.159 161.412 592C158.721 593.178 150.48 590.655 150.48 590.655C150.48 590.655 148.293 554.408 145.77 540.279C143.247 526.151 139.547 522.45 139.379 517.993C139.126 510.845 133.155 507.985 134.164 502.435C135.174 496.884 136.94 477.037 137.528 479.644C142.658 502.183 148.966 483.429 150.395 480.485C151.152 478.887 169.991 583.254 169.991 583.254Z" fill="#F2F0F0"/>
<path d="M140.135 472.916C140.135 472.916 132.146 481.663 132.735 485.111C133.239 488.559 129.287 499.323 133.239 514.293C137.697 531.365 140.051 542.971 140.892 554.156C141.733 565.341 137.949 575.601 139.463 589.309C140.64 600.074 143.079 600.663 143.079 600.663C143.079 600.663 147.873 601.84 151.237 597.635C154.6 593.514 149.555 556.847 147.873 547.764C146.191 538.598 140.808 517.236 139.379 510.929C137.612 503.192 137.949 495.287 138.033 493.016C138.453 485.027 139.463 480.065 140.304 477.037C140.388 476.617 140.808 471.907 140.135 472.916ZM154.096 483.176C158.469 495.791 172.093 502.267 184.54 497.641C196.986 493.016 203.546 479.055 199.173 466.441C194.8 453.826 181.176 447.35 168.729 451.976C156.282 456.517 149.723 470.562 154.096 483.176Z" fill="#31587A"/>
<path d="M111.289 699.984L115.747 735.558L96.404 744.724L85.7234 747.079L104.73 732.362L98.5064 700.236L111.289 699.984Z" fill="#FCBAA2"/>
<path d="M117.008 740.94L112.803 742.033L109.944 739.426L94.4696 747.163L80.7615 750.443C80.7615 750.443 80.5933 749.35 81.0138 748.761C82.6957 746.49 92.3671 741.528 92.3671 741.528C92.3671 741.528 92.5353 744.808 93.8809 744.892C95.2265 744.977 107.084 738.753 109.86 737.071C114.569 734.128 115.494 732.193 115.831 732.446C116.84 732.95 117.008 740.94 117.008 740.94Z" fill="#31587A"/>
<path d="M64.6144 650.534L49.2243 680.809L28.0314 679.8L17.4349 676.688L40.8985 672.736L53.6816 646.833L64.6144 650.534Z" fill="#FCBAA2"/>
<path d="M47.9629 686.191L43.7579 685.182L42.4123 681.482L23.3219 681.229L11.9685 678.538C11.9685 678.538 13.3141 677.025 14.1551 676.604C16.678 675.511 25.6766 675.006 25.6766 675.006C25.6766 675.006 24.7516 677.613 25.9289 678.286C27.1063 679.043 40.2258 679.463 43.4215 679.211C48.9721 678.791 50.57 677.613 50.7382 677.95C51.3269 679.127 47.9629 686.191 47.9629 686.191Z" fill="#31587A"/>
<path d="M176.887 559.959L165.449 565.089L165.533 580.815L86.7325 567.948C86.7325 567.948 79.2477 565.509 74.4541 577.872C67.642 595.364 50.3176 649.776 50.3176 649.776L61.2505 661.634L95.647 600.158C95.647 600.158 166.122 634.386 189.333 626.986C198.248 624.126 205.06 607.811 203.798 591.328C202.789 578.376 200.266 566.518 200.266 566.518L176.887 559.959Z" fill="#E63946"/>
<path d="M166.879 626.649L110.448 622.444L115.326 712.598L98.6746 713.187L86.3961 607.559C86.3961 607.559 89.676 591.832 100.441 594.187C111.289 596.626 137.36 617.314 166.879 626.649Z" fill="#E63946"/>
<path d="M204.892 649.272C204.892 649.272 175.289 616.053 167.636 597.299C158.469 574.844 159.226 546.671 157.544 537.336C154.432 520.18 150.648 486.877 149.975 482.756C149.218 478.635 151.825 474.009 151.825 474.009C151.825 474.009 149.891 461.563 155.441 462.908C163.431 464.843 171.336 469.216 174.111 470.561C179.326 472.916 190.006 535.654 190.595 538.682C192.781 549.614 200.771 559.538 206.49 569.714C219.945 593.85 223.393 622.36 223.393 622.36C223.393 622.36 221.711 643.217 204.892 649.272Z" fill="#77ABBD"/>
<path d="M174.364 562.398C174.364 562.398 174.111 566.434 155.273 565.509C136.435 564.5 108.851 558.193 108.851 558.193L152.498 556.174C152.498 556.174 169.234 556.258 174.364 562.398Z" fill="#FFE3CA"/>
<path d="M123.652 560.379C114.653 560.211 110.785 564.837 107.253 566.266C103.721 567.696 100.104 569.798 100.104 569.798C102.123 565.846 104.982 565.762 106.496 564.5C107.925 563.239 107.589 563.911 104.393 563.575C102.543 563.407 99.3474 566.687 97.0767 568.537C95.0583 570.135 93.7968 570.219 93.7968 570.219C93.7968 570.219 96.1516 566.855 99.0951 564.164C102.711 560.968 107.084 558.277 108.178 557.856C110.112 557.099 116.083 557.015 120.372 557.688C125.166 558.361 130.128 560.548 123.652 560.379Z" fill="#FFE3CA"/>
<path d="M108.598 557.94C108.598 557.94 101.702 559.622 100.525 560.547C99.6838 561.22 96.1516 565.005 96.1516 565.005C96.1516 565.005 98.6746 564.584 100.188 563.154C101.702 561.809 108.598 557.94 108.598 557.94Z" fill="#FFE3CA"/>
<path d="M159.31 557.94L187.231 543.223C187.231 543.223 187.315 561.052 187.483 567.864C187.651 574.676 190.511 584.263 185.128 585.693C179.746 587.122 176.971 586.366 182.521 589.645C188.072 592.841 186.81 596.205 184.708 598.98C182.605 601.756 191.772 630.013 189.586 631.611C180.923 620.678 171.588 607.138 167.552 597.298C162.422 584.515 160.403 569.882 159.31 557.94Z" fill="#31587A"/>
<path d="M168.309 550.792L167.215 493.941C167.215 493.941 167.299 476.196 167.636 470.982C167.972 465.6 177.139 471.907 177.139 471.907C177.139 471.907 190.006 489.316 190.258 531.281C190.427 559.37 188.913 574.003 175.962 572.826C163.935 571.733 150.227 569.882 150.227 569.882L144.256 554.324L168.309 550.792Z" fill="#77ABBD"/>
<path d="M165.449 580.815L69.3241 568.789L69.5764 566.771L165.702 578.797L165.449 580.815Z" fill="#D3D3D3"/>
<path d="M123.316 573.414C123.147 575.012 121.886 576.19 120.54 576.021L71.2583 569.882C69.9127 569.714 68.2307 568.453 67.0533 564.248L48.047 515.05C48.2993 513.031 49.8971 512.022 51.2427 512.527L101.618 520.432C102.964 520.937 103.889 522.114 104.393 524.301L123.316 573.414Z" fill="#D3D3D3"/>
<path d="M117.092 574.76L117.597 574.844L165.702 580.899C163.851 581.656 160.908 581.908 157.628 581.488L117.345 576.442L116.84 576.358L76.5566 571.312C73.2767 570.892 70.5014 569.882 68.8194 568.789L117.092 574.76Z" fill="#D3D3D3"/>
<path d="M168.309 550.792L167.215 493.941C167.215 493.941 168.056 489.147 169.738 484.858C170.159 491.082 173.018 535.906 173.355 541.793C173.775 548.185 178.989 548.858 180.082 550.96C181.26 552.979 180.251 553.399 176.382 552.642C172.598 551.801 173.943 552.474 174.784 554.492C175.625 556.595 173.523 556.006 166.122 553.315C160.74 551.381 150.395 553.315 145.181 554.492L168.309 550.792Z" fill="#31587A"/>
<path d="M500.668 411.272C491.417 413.71 474.345 422.288 470.729 437.006C465.346 459.124 476.111 491.502 459.123 523.291C453.657 533.383 553.062 547.007 553.062 547.007L572.236 435.324C572.236 435.324 548.268 411.103 543.39 409.421C533.214 406.057 519.17 406.394 500.668 411.272Z" fill="#A8DADC"/>
<path d="M572.32 435.408C575.768 444.322 584.515 497.389 574.759 509.92C573.666 511.349 579.805 513.62 578.712 520.18C578.544 521.273 576.694 526.571 576.694 526.571L568.788 528.674L551.548 508.742C551.548 508.742 558.528 497.893 567.695 456.769C570.386 444.659 571.563 433.389 572.32 435.408Z" fill="#77ABBD"/>
<path d="M507.06 498.818C507.06 498.818 515.385 520.768 535.485 526.655C538.933 527.664 541.12 531.533 539.438 532.794C537.251 534.392 534.392 534.729 529.346 534.729C518.833 534.729 504.537 531.365 494.697 521.441C480.064 506.808 475.438 500.08 476.952 492.763C478.298 485.278 507.06 498.818 507.06 498.818Z" fill="#FCD2B1"/>
<path d="M473.588 429.605C469.299 436.838 466.86 448.443 466.944 465.095C466.944 477.962 477.709 499.071 479.307 505.547C479.559 506.64 480.232 511.265 480.232 511.265L492.09 523.376L515.89 506.64L508.657 495.118L506.471 495.371C506.471 495.371 505.125 488.979 505.462 486.54C505.798 484.101 498.902 450.882 495.454 429.605C493.52 417.243 477.793 422.457 473.588 429.605Z" fill="#77ABBD"/>
<path d="M494.949 494.866L501.929 492.679L504.789 491.922C504.957 493.941 506.639 495.286 506.639 495.286L501.173 495.959L494.865 497.978L487.464 503.276L494.949 494.866Z" fill="#31587A"/>
<path d="M533.971 526.572L546.082 523.124C546.082 523.124 549.53 527.917 548.857 529.095C548.184 530.272 548.857 537.336 548.857 537.336L542.97 542.55L538.176 540.868C538.176 540.868 537.84 538.682 539.438 538.514C541.12 538.261 538.344 537.084 537.503 536.579C536.662 535.991 529.682 532.29 533.971 526.572Z" fill="#FCD2B1"/>
<path d="M515.301 410.178C513.956 414.131 515.974 418.588 519.843 419.934L526.739 422.457C530.607 423.887 534.812 421.7 536.158 417.747L542.297 399.582C543.643 395.629 541.624 391.172 537.756 389.742L530.86 387.219C526.991 385.79 522.786 387.976 521.44 391.929L515.301 410.178Z" fill="#FF957E"/>
<path d="M545.409 426.157C544.736 428.764 542.045 430.362 539.522 429.605L518.749 423.634C516.226 422.878 514.713 420.186 515.385 417.495L523.879 385.622C524.552 383.015 527.243 381.417 529.766 382.174L550.539 388.061C553.062 388.817 554.576 391.509 553.903 394.2L545.409 426.157Z" fill="#FCD2B1"/>
<path d="M556.173 391.004C556.342 390.836 554.239 388.481 555.332 383.856C556.762 377.632 552.137 375.109 548.689 375.025C546.67 374.941 539.858 378.221 536.242 379.314C532.626 380.407 532.962 378.978 526.402 377.8C522.029 376.959 521.02 379.398 519.506 382.762C517.992 386.21 517.824 399.33 517.824 399.33C518.413 400.171 519.338 400.844 519.927 400.171C520.515 399.498 522.87 388.986 524.804 385.874C526.655 382.762 534.224 387.724 538.344 390.163C542.381 392.602 545.997 393.022 552.473 391.677C553.23 392.518 553.903 393.443 553.903 393.863C553.903 394.704 552.053 400.675 552.053 400.675C552.053 400.675 555.669 398.405 556.678 396.639C557.183 396.05 557.351 393.191 556.173 391.004Z" fill="#EE9055"/>
<path d="M521.945 410.851C521.693 411.692 520.852 412.281 520.011 412.028L515.554 410.767C514.713 410.515 514.208 409.59 514.46 408.749L516.731 400.255C516.983 399.414 517.824 398.825 518.665 399.077L523.122 400.339C523.963 400.591 524.468 401.516 524.216 402.357L521.945 410.851Z" fill="#FCD2B1"/>
<path d="M519.17 402.777C519.17 402.777 515.806 415.308 514.713 419.513C513.703 423.298 512.947 432.044 533.551 437.931C545.745 441.379 547.763 431.96 548.604 428.932C549.193 426.577 548.52 418.924 547.595 417.242C547.595 417.158 546.25 422.457 546.25 422.457C546.25 422.457 545.072 416.654 539.27 415.056C529.935 412.365 526.234 417.495 522.197 416.149C519.002 415.056 518.077 409.001 519.17 402.777Z" fill="#EE9055"/>
<path d="M533.214 422.036L539.606 423.886C540.447 424.139 541.372 423.634 541.54 422.709L541.792 421.784L532.289 419.093L532.037 420.018C531.869 420.943 532.373 421.784 533.214 422.036Z" fill="#FCD2B1"/>
<path d="M634.554 549.446C631.61 557.94 579.805 589.141 562.397 587.291L510.003 589.898C465.515 584.263 444.406 512.611 444.406 512.611C446.172 494.614 490.072 520.684 505.714 528.758C530.439 541.541 546.166 542.214 546.166 542.214C562.733 543.98 581.908 530.692 602.848 530.272C625.807 529.683 639.263 536.074 634.554 549.446Z" fill="#1D3557"/>
<path d="M520.684 540.868C520.684 540.784 520.684 540.784 520.684 540.868V538.513L610.754 536.831V539.102V539.186L610.501 539.607C609.408 541.625 607.306 541.961 604.951 542.045L526.57 543.559C524.216 543.643 522.113 543.307 520.936 541.373L520.684 540.868Z" fill="#D3D3D3"/>
<path d="M542.381 540.784C542.381 540.784 542.381 540.868 542.381 540.784L542.129 541.205C541.792 541.709 541.372 542.13 540.867 542.382L527.159 542.634C524.888 542.718 522.87 542.466 521.693 540.868L521.44 540.532C521.44 540.532 521.44 540.532 521.356 540.448V539.354L542.213 538.934L542.381 540.784Z" fill="#D3D3D3"/>
<path d="M554.575 539.943L599.568 539.102V537.504L554.491 538.429L554.575 539.943Z" fill="#D3D3D3"/>
<path d="M542.886 538.009L553.734 491.922C553.987 490.745 555.164 489.736 556.342 489.652L619.584 488.474C620.761 488.474 621.434 489.399 621.182 490.661L610.333 536.747L542.886 538.009Z" fill="#D3D3D3"/>
<path d="M502.098 601.756C508.321 602.849 513.115 595.365 513.115 595.365L529.262 582.245L525.814 573.331L494.361 587.964C494.361 587.964 495.79 600.663 502.098 601.756Z" fill="#FCD2B1"/>
<path d="M513.031 594.86C513.031 594.86 513.031 595.617 511.853 599.065C510.676 602.513 509.162 603.69 507.648 604.195C501.593 606.045 497.304 605.12 482.839 607.979C468.374 610.839 464.001 608.652 459.796 601.756C455.591 594.86 459.964 589.393 467.028 588.889C477.204 588.132 482.923 589.309 488.221 588.468C493.772 587.627 494.108 586.282 497.388 584.179C500.416 582.245 503.275 593.851 500.416 596.542C497.809 598.897 510.928 599.233 513.031 594.86Z" fill="#E63946"/>
<path d="M510.003 601.504C504.032 603.354 499.659 602.429 485.194 605.288C470.729 608.147 466.356 605.961 462.151 599.065C460.216 595.869 460.132 593.01 461.226 590.823C458.03 593.094 456.937 597.046 459.796 601.756C464.001 608.652 468.374 610.839 482.839 607.979C497.304 605.12 501.677 606.045 507.648 604.195C508.826 603.858 510.003 603.017 511.012 601.083C510.676 601.251 510.339 601.419 510.003 601.504Z" fill="white"/>
<path d="M513.031 595.113C513.031 594.944 513.031 594.944 513.031 594.944C513.031 595.029 512.947 595.113 512.862 595.198C512.947 595.113 513.031 595.113 513.031 595.113Z" fill="#E9D6B8"/>
<path d="M481.83 600.242C481.409 600.41 480.989 599.485 480.821 598.224C480.568 595.617 479.98 593.094 479.139 590.487C478.718 589.225 478.718 588.132 479.223 587.964C479.727 587.795 480.568 588.72 480.905 589.982C481.746 592.505 482.25 595.112 482.503 597.635C482.671 598.896 482.25 600.074 481.83 600.242ZM486.287 599.401C485.782 599.485 485.362 598.644 485.194 597.467C484.941 595.028 484.353 592.589 483.512 590.234C483.091 589.057 483.091 588.048 483.68 587.964C484.185 587.879 485.026 588.805 485.446 589.982C486.203 592.337 486.792 594.776 487.044 597.13C487.128 598.308 486.792 599.317 486.287 599.401ZM490.997 599.233C490.492 599.317 489.987 598.392 489.819 597.13C489.399 594.607 488.81 592.169 487.885 589.646C487.464 588.384 487.464 587.375 487.969 587.375C488.558 587.375 489.399 588.3 489.819 589.561C490.744 592 491.333 594.523 491.669 596.962C491.838 598.14 491.501 599.149 490.997 599.233Z" fill="white"/>
<path d="M503.191 580.311C503.191 580.311 613.949 533.131 620.257 533.047C641.618 532.879 636.74 555.249 625.892 565.846C613.108 578.292 515.89 601.083 515.89 601.083L503.191 580.311Z" fill="#31587A"/>
<path d="M547.091 588.552L516.815 558.781L529.766 545.578L562.733 581.572L547.091 588.552Z" fill="#FCD2B1"/>
<path d="M553.314 565.173C553.314 565.173 476.363 492.091 471.233 489.904C453.657 482.504 442.808 502.603 443.397 509.583C444.238 518.582 522.366 591.748 522.366 591.748L553.314 565.173Z" fill="#31587A"/>
<path d="M598.896 590.823C600.662 592.505 600.998 597.635 600.998 597.635C600.998 597.635 575.348 607.727 566.349 607.895C563.995 607.979 559.79 606.97 555.753 605.793C555.08 605.624 553.482 603.774 552.809 603.606C551.548 603.27 551.296 604.447 550.286 604.111C547.595 603.186 545.577 602.429 545.493 602.261C540.026 590.318 541.877 584.432 541.877 584.432C541.877 584.432 553.65 587.964 551.632 585.188C547.343 579.301 559.706 573.33 562.397 576.442C573.498 588.973 593.681 585.861 598.896 590.823Z" fill="#E63946"/>
<path d="M600.325 593.346C592.42 596.626 575.853 603.27 572.573 603.522C559.033 604.531 549.614 599.569 543.306 596.626C543.895 598.308 544.568 600.242 545.493 602.261C545.577 602.429 547.511 603.186 550.286 604.111C551.38 604.447 551.632 603.186 552.809 603.606C553.482 603.774 554.996 605.625 555.753 605.793C559.79 606.97 563.995 607.895 566.349 607.895C575.348 607.727 600.998 597.635 600.998 597.635C600.998 597.635 600.998 595.28 600.325 593.346ZM582.244 585.609C582.496 586.114 581.487 586.618 580.058 586.955C577.114 587.543 574.255 588.468 571.395 589.646C569.966 590.234 568.704 590.403 568.536 589.898C568.368 589.393 569.293 588.468 570.722 587.88C573.498 586.702 576.441 585.861 579.301 585.273C580.646 584.852 581.992 585.104 582.244 585.609ZM576.441 583.506C576.694 584.011 575.684 584.684 574.255 585.104C571.395 585.945 568.62 587.123 565.845 588.552C564.499 589.225 563.238 589.478 563.069 588.973C562.901 588.468 563.826 587.375 565.172 586.702C567.863 585.357 570.638 584.179 573.498 583.422C574.927 582.834 576.273 583.002 576.441 583.506ZM570.891 581.656C571.059 582.161 570.134 582.918 568.788 583.422C566.013 584.516 563.322 585.861 560.715 587.459C559.453 588.3 558.276 588.552 558.108 587.964C557.939 587.459 558.78 586.282 560.126 585.441C562.733 583.843 565.424 582.497 568.115 581.488C569.461 581.068 570.722 581.152 570.891 581.656Z" fill="white"/>
</svg>
